<?xml version="1.0" encoding="utf-8"?>
<!-- Generator: Adobe Illustrator 22.1.0, SVG Export Plug-In . SVG Version: 6.00 Build 0)  -->
<svg version="1.1" id="Layer_1" xmlns="http://www.w3.org/2000/svg" xmlns:xlink="http://www.w3.org/1999/xlink" x="0px" y="0px"
	 viewBox="0 0 14400 14400" style="enable-background:new 0 0 14400 14400;" xml:space="preserve">
<style type="text/css">
	.st0{fill:url(#SVGID_1_);stroke:#1B150B;stroke-width:1.4726;stroke-miterlimit:10;}
	.st1{stroke:#1B150B;stroke-width:1.4726;stroke-miterlimit:10;}
	.st2{stroke:#1B150B;stroke-width:97.835;stroke-miterlimit:10;}
	.st3{fill:none;stroke:#1B150B;stroke-width:97.835;stroke-miterlimit:10;}
</style>
<g>
	<linearGradient id="SVGID_1_" gradientUnits="userSpaceOnUse" x1="309.3058" y1="7815.6309" x2="13957.6885" y2="7815.6309">
		<stop  offset="0.3568" style="stop-color:#872890"/>
		<stop  offset="1" style="stop-color:#ED047A"/>
	</linearGradient>
	<path class="st0" d="M7394.4,12916.9h-261.9h-261.9l-0.3-3839.2l-0.3-3839.2l267.5,74.8l256.4-73.4l0.3,3838.5L7394.4,12916.9z
		 M7133.8,4648.5L309.3,2714.5V3378l6824.5,1933.9V4648.5z M13957.7,2714.4L7133.2,4648.3v663.5l6824.5-1933.9"/>
	<path class="st1" d="M309.3,2714.5"/>
	<line class="st2" x1="309.3" y1="2714.5" x2="7104.2" y2="1300.5"/>
	<line class="st2" x1="13957.7" y1="2714.4" x2="7104.2" y2="1300.5"/>
	<line class="st3" x1="283.6" y1="11017.6" x2="6870.2" y2="12884.8"/>
	<line class="st3" x1="309.3" y1="3378" x2="283.6" y2="11017.6"/>
	<line class="st3" x1="283.6" y1="11017.6" x2="6870.2" y2="12884.8"/>
	<line class="st3" x1="309.3" y1="3378" x2="283.6" y2="11017.6"/>
	<line class="st3" x1="283.6" y1="11017.6" x2="6870.2" y2="12884.8"/>
	<line class="st3" x1="309.3" y1="3378" x2="283.6" y2="11017.6"/>
	<line class="st3" x1="283.6" y1="11017.6" x2="6870.2" y2="12884.8"/>
	<line class="st3" x1="309.3" y1="3378" x2="283.6" y2="11017.6"/>
	<line class="st2" x1="13936" y1="10877.9" x2="7394" y2="12897.5"/>
	<line class="st2" x1="13910.8" y1="3367.6" x2="13889.2" y2="10867.6"/>
</g>
</svg>
